<mxfile host="Electron" agent="Mozilla/5.0 (Windows NT 10.0; Win64; x64) AppleWebKit/537.36 (KHTML, like Gecko) draw.io/28.2.5 Chrome/138.0.7204.251 Electron/37.6.1 Safari/537.36" version="28.2.5">
  <diagram name="Page-1" id="mVSkfXGG42AVl1ozwvjo">
    <mxGraphModel dx="1632" dy="1635" grid="1" gridSize="10" guides="1" tooltips="1" connect="1" arrows="1" fold="1" page="1" pageScale="1" pageWidth="850" pageHeight="1100" math="0" shadow="0">
      <root>
        <mxCell id="0" />
        <mxCell id="1" parent="0" />
        <mxCell id="H25HGTS_KYLRncIaYpZP-25" value="Game" style="swimlane;whiteSpace=wrap;html=1;strokeWidth=2;" vertex="1" parent="1">
          <mxGeometry x="10" y="10" width="1140" height="880" as="geometry" />
        </mxCell>
        <mxCell id="H25HGTS_KYLRncIaYpZP-9" value="&lt;div style=&quot;color: #cccccc;background-color: #1f1f1f;font-family: Consolas, &#39;Courier New&#39;, monospace;font-weight: normal;font-size: 14px;line-height: 19px;white-space: pre;&quot;&gt;&lt;span style=&quot;color: #4ec9b0;&quot;&gt;         Foot         &lt;/span&gt;&lt;/div&gt;" style="swimlane;fontStyle=1;align=center;verticalAlign=top;childLayout=stackLayout;horizontal=1;startSize=26;horizontalStack=0;resizeParent=1;resizeParentMax=0;resizeLast=0;collapsible=1;marginBottom=0;whiteSpace=wrap;html=1;" vertex="1" parent="H25HGTS_KYLRncIaYpZP-25">
          <mxGeometry x="490" y="340" width="180" height="130" as="geometry" />
        </mxCell>
        <mxCell id="H25HGTS_KYLRncIaYpZP-10" value="&lt;div style=&quot;background-color: rgb(31, 31, 31); font-family: Consolas, &amp;quot;Courier New&amp;quot;, monospace; font-size: 14px; line-height: 19px; white-space: pre; color: rgb(204, 204, 204);&quot;&gt;&lt;span style=&quot;color: #569cd6;&quot;&gt;-&lt;/span&gt; &lt;span style=&quot;color: #9cdcfe;&quot;&gt;currState&lt;/span&gt;:&lt;span style=&quot;color: rgb(86, 156, 214);&quot;&gt; int&lt;/span&gt;           &lt;/div&gt;" style="text;strokeColor=none;fillColor=none;align=left;verticalAlign=top;spacingLeft=4;spacingRight=4;overflow=hidden;rotatable=0;points=[[0,0.5],[1,0.5]];portConstraint=eastwest;whiteSpace=wrap;html=1;" vertex="1" parent="H25HGTS_KYLRncIaYpZP-9">
          <mxGeometry y="26" width="180" height="26" as="geometry" />
        </mxCell>
        <mxCell id="H25HGTS_KYLRncIaYpZP-11" value="" style="line;strokeWidth=1;fillColor=none;align=left;verticalAlign=middle;spacingTop=-1;spacingLeft=3;spacingRight=3;rotatable=0;labelPosition=right;points=[];portConstraint=eastwest;strokeColor=inherit;" vertex="1" parent="H25HGTS_KYLRncIaYpZP-9">
          <mxGeometry y="52" width="180" height="8" as="geometry" />
        </mxCell>
        <mxCell id="H25HGTS_KYLRncIaYpZP-12" value="&lt;div style=&quot;background-color: rgb(31, 31, 31); font-family: Consolas, &amp;quot;Courier New&amp;quot;, monospace; font-size: 14px; line-height: 19px; white-space: pre; color: rgb(204, 204, 204);&quot;&gt;&lt;div style=&quot;&quot;&gt;&lt;font color=&quot;#569cd6&quot;&gt;+&lt;/font&gt;&lt;font color=&quot;#cccccc&quot;&gt; &lt;/font&gt;&lt;span style=&quot;color: rgb(220, 220, 170);&quot;&gt;Unstep&lt;/span&gt;&lt;font color=&quot;#cccccc&quot;&gt;():&lt;/font&gt;&lt;font color=&quot;#cccccc&quot;&gt; &lt;/font&gt;&lt;span style=&quot;color: rgb(86, 156, 214);&quot;&gt;void                        &lt;/span&gt;&lt;/div&gt;&lt;div style=&quot;&quot;&gt;&lt;font color=&quot;#569cd6&quot;&gt;+&lt;/font&gt;&lt;span style=&quot;color: rgb(204, 204, 204);&quot;&gt; &lt;span style=&quot;color: rgb(220, 220, 170);&quot;&gt;Step&lt;/span&gt;(&lt;span style=&quot;color: rgb(86, 156, 214);&quot;&gt;float&lt;/span&gt;):&lt;/span&gt;&lt;span style=&quot;color: rgb(204, 204, 204);&quot;&gt; &lt;/span&gt;&lt;span style=&quot;color: rgb(86, 156, 214);&quot;&gt;void&lt;/span&gt;&lt;/div&gt;&lt;div style=&quot;color: rgb(204, 204, 204);&quot;&gt;&lt;span style=&quot;color: rgb(86, 156, 214);&quot;&gt;-&lt;/span&gt; &lt;span style=&quot;color: rgb(220, 220, 170);&quot;&gt;FootDown&lt;/span&gt;(): &lt;span style=&quot;color: rgb(86, 156, 214);&quot;&gt;void&lt;/span&gt;&lt;/div&gt;&lt;/div&gt;" style="text;strokeColor=none;fillColor=none;align=left;verticalAlign=top;spacingLeft=4;spacingRight=4;overflow=hidden;rotatable=0;points=[[0,0.5],[1,0.5]];portConstraint=eastwest;whiteSpace=wrap;html=1;" vertex="1" parent="H25HGTS_KYLRncIaYpZP-9">
          <mxGeometry y="60" width="180" height="70" as="geometry" />
        </mxCell>
        <mxCell id="H25HGTS_KYLRncIaYpZP-17" value="&lt;div style=&quot;color: #cccccc;background-color: #1f1f1f;font-family: Consolas, &#39;Courier New&#39;, monospace;font-weight: normal;font-size: 14px;line-height: 19px;white-space: pre;&quot;&gt;&lt;span style=&quot;color: #4ec9b0;&quot;&gt;                              WebSocket                                &lt;/span&gt;&lt;/div&gt;" style="swimlane;fontStyle=1;align=center;verticalAlign=top;childLayout=stackLayout;horizontal=1;startSize=26;horizontalStack=0;resizeParent=1;resizeParentMax=0;resizeLast=0;collapsible=1;marginBottom=0;whiteSpace=wrap;html=1;" vertex="1" parent="H25HGTS_KYLRncIaYpZP-25">
          <mxGeometry x="60" y="570" width="560" height="248" as="geometry" />
        </mxCell>
        <mxCell id="H25HGTS_KYLRncIaYpZP-18" value="&lt;div style=&quot;color: rgb(204, 204, 204); background-color: rgb(31, 31, 31); font-family: Consolas, &amp;quot;Courier New&amp;quot;, monospace; font-size: 14px; line-height: 19px; white-space: pre;&quot;&gt;&lt;div&gt;&lt;span style=&quot;color: #569cd6;&quot;&gt;+&lt;/span&gt; &lt;span style=&quot;color: #9cdcfe;&quot;&gt;_port&lt;/span&gt;: &lt;span style=&quot;color: rgb(86, 156, 214);&quot;&gt;int&lt;/span&gt;&lt;/div&gt;&lt;div&gt;&lt;span style=&quot;color: #569cd6;&quot;&gt;-&lt;/span&gt; &lt;span style=&quot;color: #9cdcfe;&quot;&gt;_ip_address&lt;/span&gt;: &lt;span style=&quot;color: rgb(86, 156, 214);&quot;&gt;string&lt;/span&gt;&lt;/div&gt;&lt;div&gt;&lt;span style=&quot;color: #569cd6;&quot;&gt;-&lt;/span&gt; &lt;span style=&quot;color: #9cdcfe;&quot;&gt;_webSocketPeer&lt;/span&gt;: &lt;span style=&quot;color: rgb(78, 201, 176);&quot;&gt;WebSocketPeer&lt;/span&gt;&lt;/div&gt;&lt;div&gt;&lt;span style=&quot;color: #569cd6;&quot;&gt;-&lt;/span&gt; &lt;span style=&quot;color: #9cdcfe;&quot;&gt;_leftX&lt;/span&gt;: &lt;span style=&quot;color: rgb(86, 156, 214);&quot;&gt;float&lt;/span&gt;&lt;/div&gt;&lt;div&gt;&lt;span style=&quot;color: #569cd6;&quot;&gt;-&lt;/span&gt; &lt;span style=&quot;color: #9cdcfe;&quot;&gt;_rightX&lt;/span&gt;: &lt;span style=&quot;color: rgb(86, 156, 214);&quot;&gt;float&lt;/span&gt;&lt;/div&gt;&lt;div&gt;&lt;span style=&quot;color: #569cd6;&quot;&gt;-&lt;/span&gt; &lt;span style=&quot;color: #9cdcfe;&quot;&gt;_leftState&lt;/span&gt;: &lt;span style=&quot;color: rgb(86, 156, 214);&quot;&gt;string&lt;/span&gt;&lt;/div&gt;&lt;div&gt;&lt;span style=&quot;color: #569cd6;&quot;&gt;-&lt;/span&gt; &lt;span style=&quot;color: #9cdcfe;&quot;&gt;_rightState&lt;/span&gt;: &lt;span style=&quot;color: rgb(86, 156, 214);&quot;&gt;string&lt;/span&gt;&lt;/div&gt;&lt;div&gt;&lt;span style=&quot;color: rgb(86, 156, 214);&quot;&gt;+&lt;/span&gt; &lt;span style=&quot;color: rgb(78, 201, 176);&quot;&gt;DataReceivedEventHandler&lt;/span&gt;(&lt;span style=&quot;color: rgb(86, 156, 214);&quot;&gt;float&lt;/span&gt;, &lt;span style=&quot;color: rgb(86, 156, 214);&quot;&gt;float&lt;/span&gt;, &lt;span style=&quot;color: rgb(86, 156, 214);&quot;&gt;string&lt;/span&gt;, &lt;span style=&quot;color: rgb(86, 156, 214);&quot;&gt;string&lt;/span&gt;): &lt;span style=&quot;color: rgb(86, 156, 214);&quot;&gt;delegate&lt;/span&gt; &lt;span style=&quot;color: rgb(86, 156, 214);&quot;&gt;void&lt;/span&gt;&lt;/div&gt;&lt;/div&gt;" style="text;strokeColor=none;fillColor=none;align=left;verticalAlign=top;spacingLeft=4;spacingRight=4;overflow=hidden;rotatable=0;points=[[0,0.5],[1,0.5]];portConstraint=eastwest;whiteSpace=wrap;html=1;" vertex="1" parent="H25HGTS_KYLRncIaYpZP-17">
          <mxGeometry y="26" width="560" height="164" as="geometry" />
        </mxCell>
        <mxCell id="H25HGTS_KYLRncIaYpZP-19" value="" style="line;strokeWidth=1;fillColor=none;align=left;verticalAlign=middle;spacingTop=-1;spacingLeft=3;spacingRight=3;rotatable=0;labelPosition=right;points=[];portConstraint=eastwest;strokeColor=inherit;" vertex="1" parent="H25HGTS_KYLRncIaYpZP-17">
          <mxGeometry y="190" width="560" height="8" as="geometry" />
        </mxCell>
        <mxCell id="H25HGTS_KYLRncIaYpZP-20" value="&lt;div style=&quot;background-color: rgb(31, 31, 31); font-family: Consolas, &amp;quot;Courier New&amp;quot;, monospace; font-size: 14px; line-height: 19px; white-space: pre; color: rgb(204, 204, 204);&quot;&gt;&lt;div style=&quot;color: rgb(204, 204, 204);&quot;&gt;&lt;span style=&quot;color: rgb(86, 156, 214);&quot;&gt;+&lt;/span&gt; &lt;span style=&quot;color: rgb(220, 220, 170);&quot;&gt;_Ready&lt;/span&gt;(): &lt;span style=&quot;color: rgb(86, 156, 214);&quot;&gt;override&lt;/span&gt; &lt;span style=&quot;color: rgb(86, 156, 214);&quot;&gt;void&lt;/span&gt;&lt;/div&gt;&lt;div style=&quot;&quot;&gt;&lt;font color=&quot;#569cd6&quot;&gt;+&lt;/font&gt;&lt;font color=&quot;#cccccc&quot;&gt; &lt;/font&gt;&lt;span style=&quot;color: rgb(220, 220, 170);&quot;&gt;_Process&lt;/span&gt;&lt;font color=&quot;#cccccc&quot;&gt;(&lt;/font&gt;&lt;span style=&quot;color: rgb(86, 156, 214);&quot;&gt;double&lt;/span&gt;&lt;font color=&quot;#cccccc&quot;&gt; &lt;/font&gt;&lt;span style=&quot;color: rgb(156, 220, 254);&quot;&gt;delta&lt;/span&gt;&lt;font color=&quot;#cccccc&quot;&gt;):&lt;/font&gt;&lt;font color=&quot;#cccccc&quot;&gt; &lt;/font&gt;&lt;span style=&quot;color: rgb(86, 156, 214);&quot;&gt;override&lt;/span&gt;&lt;font color=&quot;#cccccc&quot;&gt; &lt;/font&gt;&lt;span style=&quot;color: rgb(86, 156, 214);&quot;&gt;void&lt;/span&gt;&lt;span style=&quot;color: rgb(204, 204, 204);&quot;&gt;                                     &lt;/span&gt;&lt;/div&gt;&lt;/div&gt;" style="text;strokeColor=none;fillColor=none;align=left;verticalAlign=top;spacingLeft=4;spacingRight=4;overflow=hidden;rotatable=0;points=[[0,0.5],[1,0.5]];portConstraint=eastwest;whiteSpace=wrap;html=1;" vertex="1" parent="H25HGTS_KYLRncIaYpZP-17">
          <mxGeometry y="198" width="560" height="50" as="geometry" />
        </mxCell>
        <mxCell id="H25HGTS_KYLRncIaYpZP-21" value="&lt;div style=&quot;color: #cccccc;background-color: #1f1f1f;font-family: Consolas, &#39;Courier New&#39;, monospace;font-weight: normal;font-size: 14px;line-height: 19px;white-space: pre;&quot;&gt;&lt;span style=&quot;color: #4ec9b0;&quot;&gt;            NoteHitText           &lt;/span&gt;&lt;/div&gt;" style="swimlane;fontStyle=1;align=center;verticalAlign=top;childLayout=stackLayout;horizontal=1;startSize=26;horizontalStack=0;resizeParent=1;resizeParentMax=0;resizeLast=0;collapsible=1;marginBottom=0;whiteSpace=wrap;html=1;" vertex="1" parent="H25HGTS_KYLRncIaYpZP-25">
          <mxGeometry x="475" y="120" width="270" height="170" as="geometry" />
        </mxCell>
        <mxCell id="H25HGTS_KYLRncIaYpZP-22" value="&lt;div style=&quot;color: rgb(204, 204, 204); background-color: rgb(31, 31, 31); font-family: Consolas, &amp;quot;Courier New&amp;quot;, monospace; font-size: 14px; line-height: 19px; white-space: pre;&quot;&gt;&lt;div&gt;&lt;/div&gt;&lt;div&gt;&lt;span style=&quot;color: #569cd6;&quot;&gt;-&lt;/span&gt; &lt;span style=&quot;color: #9cdcfe;&quot;&gt;speed&lt;/span&gt;:&lt;span style=&quot;color: rgb(86, 156, 214);&quot;&gt; float&lt;/span&gt;&lt;/div&gt;&lt;div&gt;&lt;span style=&quot;color: #569cd6;&quot;&gt;-&lt;/span&gt; &lt;span style=&quot;color: #9cdcfe;&quot;&gt;fadeTime&lt;/span&gt;:&lt;span style=&quot;color: rgb(86, 156, 214);&quot;&gt; float&lt;/span&gt;&lt;/div&gt;&lt;div&gt;&lt;span style=&quot;color: #4ec9b0;&quot;&gt;&lt;span style=&quot;color: rgb(86, 156, 214);&quot;&gt;-&lt;/span&gt;&lt;/span&gt; &lt;span style=&quot;color: #9cdcfe;&quot;&gt;text&lt;/span&gt;:&lt;span style=&quot;color: rgb(86, 156, 214);&quot;&gt; &lt;/span&gt;&lt;span style=&quot;color: rgb(78, 201, 176);&quot;&gt;Label&lt;/span&gt;&lt;/div&gt;&lt;div&gt;&lt;span style=&quot;color: #569cd6;&quot;&gt;-&lt;/span&gt; &lt;span style=&quot;color: #9cdcfe;&quot;&gt;timeSpent&lt;/span&gt;:&lt;span style=&quot;color: rgb(86, 156, 214);&quot;&gt; float                   &lt;/span&gt;&lt;/div&gt;&lt;/div&gt;" style="text;strokeColor=none;fillColor=none;align=left;verticalAlign=top;spacingLeft=4;spacingRight=4;overflow=hidden;rotatable=0;points=[[0,0.5],[1,0.5]];portConstraint=eastwest;whiteSpace=wrap;html=1;" vertex="1" parent="H25HGTS_KYLRncIaYpZP-21">
          <mxGeometry y="26" width="270" height="84" as="geometry" />
        </mxCell>
        <mxCell id="H25HGTS_KYLRncIaYpZP-23" value="" style="line;strokeWidth=1;fillColor=none;align=left;verticalAlign=middle;spacingTop=-1;spacingLeft=3;spacingRight=3;rotatable=0;labelPosition=right;points=[];portConstraint=eastwest;strokeColor=inherit;" vertex="1" parent="H25HGTS_KYLRncIaYpZP-21">
          <mxGeometry y="110" width="270" height="8" as="geometry" />
        </mxCell>
        <mxCell id="H25HGTS_KYLRncIaYpZP-24" value="&lt;div style=&quot;color: rgb(204, 204, 204); background-color: rgb(31, 31, 31); font-family: Consolas, &amp;quot;Courier New&amp;quot;, monospace; font-size: 14px; line-height: 19px; white-space: pre;&quot;&gt;&lt;div&gt;&lt;/div&gt;&lt;div&gt;&lt;span style=&quot;color: #569cd6;&quot;&gt;+&lt;/span&gt; &lt;span style=&quot;color: #dcdcaa;&quot;&gt;Setup&lt;/span&gt;(&lt;span style=&quot;color: #569cd6;&quot;&gt;int&lt;/span&gt;): &lt;span style=&quot;color: rgb(86, 156, 214);&quot;&gt;void&lt;/span&gt;&lt;/div&gt;&lt;div&gt;&lt;span style=&quot;color: rgb(86, 156, 214);&quot;&gt;+&lt;/span&gt; &lt;span style=&quot;color: rgb(220, 220, 170);&quot;&gt;_Process&lt;/span&gt;(&lt;span style=&quot;color: rgb(86, 156, 214);&quot;&gt;double&lt;/span&gt;): &lt;span style=&quot;color: rgb(86, 156, 214);&quot;&gt;override&lt;/span&gt; &lt;span style=&quot;color: rgb(86, 156, 214);&quot;&gt;void    &lt;/span&gt;&lt;/div&gt;&lt;/div&gt;" style="text;strokeColor=none;fillColor=none;align=left;verticalAlign=top;spacingLeft=4;spacingRight=4;overflow=hidden;rotatable=0;points=[[0,0.5],[1,0.5]];portConstraint=eastwest;whiteSpace=wrap;html=1;" vertex="1" parent="H25HGTS_KYLRncIaYpZP-21">
          <mxGeometry y="118" width="270" height="52" as="geometry" />
        </mxCell>
        <mxCell id="H25HGTS_KYLRncIaYpZP-5" value="&lt;div style=&quot;color: #cccccc;background-color: #1f1f1f;font-family: Consolas, &#39;Courier New&#39;, monospace;font-weight: normal;font-size: 14px;line-height: 19px;white-space: pre;&quot;&gt;&lt;span style=&quot;color: #4ec9b0;&quot;&gt;                     Stage                     &lt;/span&gt;&lt;/div&gt;" style="swimlane;fontStyle=1;align=center;verticalAlign=top;childLayout=stackLayout;horizontal=1;startSize=26;horizontalStack=0;resizeParent=1;resizeParentMax=0;resizeLast=0;collapsible=1;marginBottom=0;whiteSpace=wrap;html=1;" vertex="1" parent="H25HGTS_KYLRncIaYpZP-25">
          <mxGeometry x="60" y="120" width="370" height="430" as="geometry" />
        </mxCell>
        <mxCell id="H25HGTS_KYLRncIaYpZP-6" value="&lt;div&gt;&lt;div style=&quot;background-color: rgb(31, 31, 31); font-family: Consolas, &amp;quot;Courier New&amp;quot;, monospace; font-size: 14px; line-height: 19px; white-space: pre; color: rgb(204, 204, 204);&quot;&gt;&lt;div style=&quot;line-height: 19px;&quot;&gt;&lt;div style=&quot;color: rgb(204, 204, 204);&quot;&gt;&lt;span style=&quot;color: #569cd6;&quot;&gt;-&lt;/span&gt; &lt;span style=&quot;color: #9cdcfe;&quot;&gt;score&lt;/span&gt;:&lt;span style=&quot;color: rgb(86, 156, 214);&quot;&gt; int&lt;/span&gt;&lt;/div&gt;&lt;div style=&quot;color: rgb(204, 204, 204);&quot;&gt;&lt;span style=&quot;color: rgb(86, 156, 214);&quot;&gt;-&lt;/span&gt; &lt;span style=&quot;color: #9cdcfe;&quot;&gt;noteHitTextPath&lt;/span&gt;: &lt;span style=&quot;color: rgb(86, 156, 214);&quot;&gt;string&lt;/span&gt;&lt;/div&gt;&lt;div style=&quot;color: rgb(204, 204, 204);&quot;&gt;&lt;span style=&quot;color: rgb(86, 156, 214);&quot;&gt;-&lt;/span&gt; &lt;span style=&quot;color: #9cdcfe;&quot;&gt;footXTolerance&lt;/span&gt;: &lt;span style=&quot;color: rgb(86, 156, 214);&quot;&gt;float&lt;/span&gt;&lt;/div&gt;&lt;div style=&quot;color: rgb(204, 204, 204);&quot;&gt;&lt;span style=&quot;color: rgb(86, 156, 214);&quot;&gt;-&lt;/span&gt; &lt;span style=&quot;color: #9cdcfe;&quot;&gt;stepTime&lt;/span&gt;: &lt;span style=&quot;color: rgb(86, 156, 214);&quot;&gt;float&lt;/span&gt;&lt;/div&gt;&lt;div style=&quot;color: rgb(204, 204, 204);&quot;&gt;&lt;span style=&quot;color: rgb(86, 156, 214);&quot;&gt;-&lt;/span&gt; &lt;span style=&quot;color: #9cdcfe;&quot;&gt;keyboardMovementSpeed&lt;/span&gt;: &lt;span style=&quot;color: rgb(86, 156, 214);&quot;&gt;float&lt;/span&gt;&lt;/div&gt;&lt;div style=&quot;color: rgb(204, 204, 204);&quot;&gt;&lt;span style=&quot;color: rgb(86, 156, 214);&quot;&gt;-&lt;/span&gt; &lt;span style=&quot;color: #9cdcfe;&quot;&gt;foot0&lt;/span&gt;: &lt;span style=&quot;color: rgb(78, 201, 176);&quot;&gt;Foot&lt;/span&gt;&lt;/div&gt;&lt;div style=&quot;color: rgb(204, 204, 204);&quot;&gt;&lt;span style=&quot;color: rgb(86, 156, 214);&quot;&gt;-&lt;/span&gt; &lt;span style=&quot;color: #9cdcfe;&quot;&gt;foot1&lt;/span&gt;: &lt;span style=&quot;color: rgb(78, 201, 176);&quot;&gt;Foot&lt;/span&gt;&lt;/div&gt;&lt;div style=&quot;color: rgb(204, 204, 204);&quot;&gt;&lt;span style=&quot;color: rgb(86, 156, 214);&quot;&gt;-&lt;/span&gt; &lt;span style=&quot;color: #9cdcfe;&quot;&gt;hitbox&lt;/span&gt;: &lt;span style=&quot;color: rgb(78, 201, 176);&quot;&gt;Area2D&lt;/span&gt;&lt;/div&gt;&lt;div style=&quot;color: rgb(204, 204, 204);&quot;&gt;&lt;span style=&quot;color: rgb(86, 156, 214);&quot;&gt;-&lt;/span&gt; &lt;span style=&quot;color: #9cdcfe;&quot;&gt;_socket&lt;/span&gt;: &lt;span style=&quot;color: rgb(78, 201, 176);&quot;&gt;WebSocket&lt;/span&gt;&lt;/div&gt;&lt;div style=&quot;color: rgb(204, 204, 204);&quot;&gt;&lt;span style=&quot;color: rgb(86, 156, 214);&quot;&gt;-&lt;/span&gt; &lt;span style=&quot;color: #9cdcfe;&quot;&gt;sceneWidth&lt;/span&gt;: &lt;span style=&quot;color: rgb(86, 156, 214);&quot;&gt;float&lt;/span&gt;&lt;/div&gt;&lt;div style=&quot;color: rgb(204, 204, 204);&quot;&gt;&lt;span style=&quot;color: #4ec9b0;&quot;&gt;&lt;span style=&quot;color: rgb(86, 156, 214);&quot;&gt;-&lt;/span&gt;&lt;/span&gt; &lt;span style=&quot;color: #9cdcfe;&quot;&gt;notes&lt;/span&gt;: &lt;span style=&quot;color: rgb(78, 201, 176);&quot;&gt;List&lt;/span&gt;&amp;lt;&lt;span style=&quot;color: rgb(78, 201, 176);&quot;&gt;Note&lt;/span&gt;&amp;gt;&lt;/div&gt;&lt;div style=&quot;&quot;&gt;&lt;font color=&quot;#9cdcfe&quot;&gt;-----------------------------------------------&lt;/font&gt;&lt;font color=&quot;#cccccc&quot;&gt;&lt;br&gt;&lt;/font&gt;&lt;/div&gt;&lt;/div&gt;&lt;/div&gt;&lt;/div&gt;" style="text;strokeColor=none;fillColor=none;align=left;verticalAlign=top;spacingLeft=4;spacingRight=4;overflow=hidden;rotatable=0;points=[[0,0.5],[1,0.5]];portConstraint=eastwest;whiteSpace=wrap;html=1;" vertex="1" parent="H25HGTS_KYLRncIaYpZP-5">
          <mxGeometry y="26" width="370" height="214" as="geometry" />
        </mxCell>
        <mxCell id="H25HGTS_KYLRncIaYpZP-7" value="" style="line;strokeWidth=1;fillColor=none;align=left;verticalAlign=middle;spacingTop=-1;spacingLeft=3;spacingRight=3;rotatable=0;labelPosition=right;points=[];portConstraint=eastwest;strokeColor=inherit;" vertex="1" parent="H25HGTS_KYLRncIaYpZP-5">
          <mxGeometry y="240" width="370" height="8" as="geometry" />
        </mxCell>
        <mxCell id="H25HGTS_KYLRncIaYpZP-8" value="&lt;div style=&quot;color: rgb(204, 204, 204); background-color: rgb(31, 31, 31); font-family: Consolas, &amp;quot;Courier New&amp;quot;, monospace; font-size: 14px; line-height: 19px; white-space: pre;&quot;&gt;&lt;div&gt;&lt;span style=&quot;color: #569cd6;&quot;&gt;+ &lt;span style=&quot;color: #dcdcaa;&quot;&gt;_Ready&lt;/span&gt;&lt;/span&gt;(): &lt;span style=&quot;color: rgb(86, 156, 214);&quot;&gt;override&lt;/span&gt;&lt;span style=&quot;color: rgb(86, 156, 214);&quot;&gt; &lt;/span&gt;&lt;span style=&quot;color: rgb(86, 156, 214);&quot;&gt;void&lt;/span&gt;&lt;/div&gt;&lt;div&gt;&lt;span style=&quot;color: #569cd6;&quot;&gt;+&lt;/span&gt; &lt;span style=&quot;color: #dcdcaa;&quot;&gt;AddActiveNote&lt;/span&gt;(&lt;span style=&quot;color: #4ec9b0;&quot;&gt;Node2D&lt;/span&gt;): &lt;span style=&quot;color: rgb(86, 156, 214);&quot;&gt;void&lt;/span&gt;&lt;/div&gt;&lt;div&gt;&lt;span style=&quot;color: rgb(86, 156, 214);&quot;&gt;+&lt;/span&gt; &lt;span style=&quot;color: rgb(220, 220, 170);&quot;&gt;MoveFeet&lt;/span&gt;(&lt;span style=&quot;color: rgb(86, 156, 214);&quot;&gt;float&lt;/span&gt;, &lt;span style=&quot;color: rgb(86, 156, 214);&quot;&gt;float&lt;/span&gt;, &lt;span style=&quot;color: rgb(86, 156, 214);&quot;&gt;string&lt;/span&gt;, &lt;span style=&quot;color: rgb(86, 156, 214);&quot;&gt;string&lt;/span&gt;): &lt;span style=&quot;color: rgb(86, 156, 214);&quot;&gt;void    &lt;/span&gt;&lt;/div&gt;&lt;div&gt;&lt;span style=&quot;color: rgb(86, 156, 214);&quot;&gt;-&lt;/span&gt; &lt;span style=&quot;color: #dcdcaa;&quot;&gt;ClampedPos&lt;/span&gt;(&lt;span style=&quot;color: #569cd6;&quot;&gt;float&lt;/span&gt;): &lt;span style=&quot;color: rgb(78, 201, 176);&quot;&gt;Vector2&lt;/span&gt;&lt;/div&gt;&lt;div&gt;&lt;span style=&quot;color: #569cd6;&quot;&gt;-&lt;/span&gt; &lt;span style=&quot;color: #dcdcaa;&quot;&gt;Step&lt;/span&gt;(&lt;span style=&quot;color: #4ec9b0;&quot;&gt;Foot&lt;/span&gt;, &lt;span style=&quot;color: #569cd6;&quot;&gt;float&lt;/span&gt;): &lt;span style=&quot;color: rgb(86, 156, 214);&quot;&gt;void&lt;/span&gt;&lt;/div&gt;&lt;div&gt;&lt;span style=&quot;color: #569cd6;&quot;&gt;-&lt;/span&gt; &lt;span style=&quot;color: #dcdcaa;&quot;&gt;NoteVFX&lt;/span&gt;(&lt;span style=&quot;color: #4ec9b0;&quot;&gt;Foot&lt;/span&gt;, &lt;span style=&quot;color: #569cd6;&quot;&gt;int&lt;/span&gt;): &lt;span style=&quot;color: rgb(86, 156, 214);&quot;&gt;void&lt;/span&gt;&lt;/div&gt;&lt;div&gt;&lt;span style=&quot;color: rgb(86, 156, 214);&quot;&gt;-&lt;/span&gt; &lt;span style=&quot;color: rgb(220, 220, 170);&quot;&gt;GivePoints&lt;/span&gt;(&lt;span style=&quot;color: rgb(86, 156, 214);&quot;&gt;int&lt;/span&gt;): &lt;span style=&quot;color: rgb(86, 156, 214);&quot;&gt;void&lt;/span&gt;&lt;/div&gt;&lt;div&gt;&lt;span style=&quot;color: rgb(86, 156, 214);&quot;&gt;-&lt;/span&gt; &lt;span style=&quot;color: rgb(220, 220, 170);&quot;&gt;TimingRating&lt;/span&gt;(&lt;span style=&quot;color: rgb(86, 156, 214);&quot;&gt;float&lt;/span&gt;): &lt;span style=&quot;color: rgb(86, 156, 214);&quot;&gt;int&lt;/span&gt;&lt;/div&gt;&lt;div&gt;&lt;span style=&quot;color: rgb(86, 156, 214);&quot;&gt;-&lt;/span&gt; &lt;span style=&quot;color: rgb(220, 220, 170);&quot;&gt;Unstep&lt;/span&gt;(&lt;span style=&quot;color: rgb(78, 201, 176);&quot;&gt;Foot&lt;/span&gt;): &lt;span style=&quot;color: rgb(86, 156, 214);&quot;&gt;void&lt;/span&gt;&lt;/div&gt;&lt;/div&gt;" style="text;strokeColor=none;fillColor=none;align=left;verticalAlign=top;spacingLeft=4;spacingRight=4;overflow=hidden;rotatable=0;points=[[0,0.5],[1,0.5]];portConstraint=eastwest;whiteSpace=wrap;html=1;" vertex="1" parent="H25HGTS_KYLRncIaYpZP-5">
          <mxGeometry y="248" width="370" height="182" as="geometry" />
        </mxCell>
        <mxCell id="H25HGTS_KYLRncIaYpZP-13" value="&lt;div style=&quot;color: #cccccc;background-color: #1f1f1f;font-family: Consolas, &#39;Courier New&#39;, monospace;font-weight: normal;font-size: 14px;line-height: 19px;white-space: pre;&quot;&gt;&lt;span style=&quot;color: #4ec9b0;&quot;&gt;                 Conductor                &lt;/span&gt;&lt;/div&gt;" style="swimlane;fontStyle=1;align=center;verticalAlign=top;childLayout=stackLayout;horizontal=1;startSize=26;horizontalStack=0;resizeParent=1;resizeParentMax=0;resizeLast=0;collapsible=1;marginBottom=0;whiteSpace=wrap;html=1;" vertex="1" parent="H25HGTS_KYLRncIaYpZP-25">
          <mxGeometry x="780" y="110" width="330" height="350" as="geometry" />
        </mxCell>
        <mxCell id="H25HGTS_KYLRncIaYpZP-14" value="&lt;div style=&quot;background-color: rgb(31, 31, 31); font-family: Consolas, &amp;quot;Courier New&amp;quot;, monospace; font-size: 14px; line-height: 19px; white-space: pre; color: rgb(204, 204, 204);&quot;&gt;&lt;div style=&quot;color: rgb(204, 204, 204);&quot;&gt;&lt;span style=&quot;color: rgb(86, 156, 214);&quot;&gt;-&lt;/span&gt; &lt;span style=&quot;color: #9cdcfe;&quot;&gt;BPM&lt;/span&gt;: &lt;span style=&quot;color: rgb(86, 156, 214);&quot;&gt;int&lt;/span&gt;&lt;/div&gt;&lt;div style=&quot;color: rgb(204, 204, 204);&quot;&gt;&lt;span style=&quot;color: rgb(86, 156, 214);&quot;&gt;-&lt;/span&gt; &lt;span style=&quot;color: #9cdcfe;&quot;&gt;measures&lt;/span&gt;: &lt;span style=&quot;color: rgb(86, 156, 214);&quot;&gt;int&lt;/span&gt;&lt;/div&gt;&lt;div style=&quot;color: rgb(204, 204, 204);&quot;&gt;&lt;span style=&quot;color: rgb(86, 156, 214);&quot;&gt;-&lt;/span&gt; &lt;span style=&quot;color: #9cdcfe;&quot;&gt;offsetTimer&lt;/span&gt;: &lt;span style=&quot;color: rgb(78, 201, 176);&quot;&gt;Timer&lt;/span&gt;&lt;/div&gt;&lt;div style=&quot;color: rgb(204, 204, 204);&quot;&gt;&lt;span style=&quot;color: rgb(86, 156, 214);&quot;&gt;-&lt;/span&gt; &lt;span style=&quot;color: #9cdcfe;&quot;&gt;songPosition&lt;/span&gt;: &lt;span style=&quot;color: rgb(86, 156, 214);&quot;&gt;float&lt;/span&gt;&lt;/div&gt;&lt;div style=&quot;color: rgb(204, 204, 204);&quot;&gt;&lt;span style=&quot;color: rgb(86, 156, 214);&quot;&gt;-&lt;/span&gt; &lt;span style=&quot;color: #9cdcfe;&quot;&gt;songPositionInBeats&lt;/span&gt;: &lt;span style=&quot;color: rgb(86, 156, 214);&quot;&gt;int&lt;/span&gt;&lt;/div&gt;&lt;div style=&quot;color: rgb(204, 204, 204);&quot;&gt;&lt;span style=&quot;color: rgb(86, 156, 214);&quot;&gt;-&lt;/span&gt; &lt;span style=&quot;color: rgb(156, 220, 254);&quot;&gt;crotchet&lt;/span&gt;: &lt;span style=&quot;color: rgb(86, 156, 214);&quot;&gt;int&lt;/span&gt;&lt;/div&gt;&lt;div style=&quot;color: rgb(204, 204, 204);&quot;&gt;&lt;span style=&quot;color: #569cd6;&quot;&gt;-&lt;/span&gt; &lt;span style=&quot;color: #9cdcfe;&quot;&gt;lastReportedBeat&lt;/span&gt;:&lt;span style=&quot;color: rgb(86, 156, 214);&quot;&gt; int&lt;/span&gt;&lt;/div&gt;&lt;div style=&quot;&quot;&gt;&lt;span style=&quot;color: rgb(86, 156, 214);&quot;&gt;-&lt;/span&gt;&lt;font color=&quot;#cccccc&quot;&gt; &lt;/font&gt;&lt;span style=&quot;color: rgb(156, 220, 254);&quot;&gt;beatsBeforeStart&lt;/span&gt;&lt;font color=&quot;#cccccc&quot;&gt;:&lt;/font&gt;&lt;font color=&quot;#cccccc&quot;&gt; &lt;/font&gt;&lt;span style=&quot;color: rgb(86, 156, 214);&quot;&gt;int&lt;/span&gt;&lt;/div&gt;&lt;div style=&quot;color: rgb(204, 204, 204);&quot;&gt;&lt;span style=&quot;color: #569cd6;&quot;&gt;-&lt;/span&gt; &lt;span style=&quot;color: #9cdcfe;&quot;&gt;measure&lt;/span&gt;:&lt;span style=&quot;color: rgb(86, 156, 214);&quot;&gt; int&lt;/span&gt;&lt;/div&gt;&lt;div style=&quot;color: rgb(204, 204, 204);&quot;&gt;&lt;span style=&quot;color: rgb(86, 156, 214);&quot;&gt;+&lt;/span&gt; &lt;span style=&quot;color: rgb(78, 201, 176);&quot;&gt;BeatEventHandler&lt;/span&gt;(&lt;span style=&quot;color: rgb(86, 156, 214);&quot;&gt;int&lt;/span&gt;): &lt;span style=&quot;color: rgb(86, 156, 214);&quot;&gt;delegate&lt;/span&gt; &lt;span style=&quot;color: rgb(86, 156, 214);&quot;&gt;void&lt;/span&gt;&lt;/div&gt;&lt;div style=&quot;color: rgb(204, 204, 204);&quot;&gt;&lt;span style=&quot;color: #569cd6;&quot;&gt;+&lt;/span&gt; &lt;span style=&quot;color: #4ec9b0;&quot;&gt;MeasureEventHandler&lt;/span&gt;(&lt;span style=&quot;color: #569cd6;&quot;&gt;int&lt;/span&gt;): &lt;span style=&quot;color: rgb(86, 156, 214);&quot;&gt;delegate&lt;/span&gt; &lt;span style=&quot;color: rgb(86, 156, 214);&quot;&gt;void   &lt;/span&gt;&lt;/div&gt;&lt;/div&gt;" style="text;strokeColor=none;fillColor=none;align=left;verticalAlign=top;spacingLeft=4;spacingRight=4;overflow=hidden;rotatable=0;points=[[0,0.5],[1,0.5]];portConstraint=eastwest;whiteSpace=wrap;html=1;" vertex="1" parent="H25HGTS_KYLRncIaYpZP-13">
          <mxGeometry y="26" width="330" height="214" as="geometry" />
        </mxCell>
        <mxCell id="H25HGTS_KYLRncIaYpZP-15" value="" style="line;strokeWidth=1;fillColor=none;align=left;verticalAlign=middle;spacingTop=-1;spacingLeft=3;spacingRight=3;rotatable=0;labelPosition=right;points=[];portConstraint=eastwest;strokeColor=inherit;" vertex="1" parent="H25HGTS_KYLRncIaYpZP-13">
          <mxGeometry y="240" width="330" height="8" as="geometry" />
        </mxCell>
        <mxCell id="H25HGTS_KYLRncIaYpZP-16" value="&lt;div style=&quot;color: rgb(204, 204, 204); background-color: rgb(31, 31, 31); font-family: Consolas, &amp;quot;Courier New&amp;quot;, monospace; font-size: 14px; line-height: 19px; white-space: pre;&quot;&gt;&lt;div&gt;&lt;span style=&quot;color: #569cd6;&quot;&gt;+&lt;/span&gt; &lt;span style=&quot;color: #dcdcaa;&quot;&gt;_Ready&lt;/span&gt;(): &lt;span style=&quot;color: rgb(86, 156, 214);&quot;&gt;override&lt;/span&gt; &lt;span style=&quot;color: rgb(86, 156, 214);&quot;&gt;void&lt;/span&gt;&lt;/div&gt;&lt;div&gt;&lt;span style=&quot;color: rgb(86, 156, 214);&quot;&gt;+&lt;/span&gt; &lt;span style=&quot;color: rgb(220, 220, 170);&quot;&gt;_PhysicsProcess&lt;/span&gt;(&lt;span style=&quot;color: rgb(86, 156, 214);&quot;&gt;double&lt;/span&gt;): &lt;span style=&quot;color: rgb(86, 156, 214);&quot;&gt;override&lt;/span&gt; &lt;span style=&quot;color: rgb(86, 156, 214);&quot;&gt;void   &lt;/span&gt; &lt;/div&gt;&lt;div&gt;&lt;span style=&quot;color: rgb(86, 156, 214);&quot;&gt;+&lt;/span&gt; &lt;span style=&quot;color: rgb(220, 220, 170);&quot;&gt;ReportBeat&lt;/span&gt;(): &lt;span style=&quot;color: rgb(86, 156, 214);&quot;&gt;void&lt;/span&gt;&lt;/div&gt;&lt;div&gt;&lt;span style=&quot;color: rgb(86, 156, 214);&quot;&gt;+&lt;/span&gt; &lt;span style=&quot;color: rgb(220, 220, 170);&quot;&gt;BeatOffset&lt;/span&gt;(&lt;span style=&quot;color: rgb(86, 156, 214);&quot;&gt;int&lt;/span&gt;): &lt;span style=&quot;color: rgb(86, 156, 214);&quot;&gt;void&lt;/span&gt;&lt;/div&gt;&lt;div&gt;&lt;span style=&quot;color: rgb(86, 156, 214);&quot;&gt;+&lt;/span&gt; &lt;span style=&quot;color: rgb(220, 220, 170);&quot;&gt;OnOffsetTimerTimeout&lt;/span&gt;(): &lt;span style=&quot;color: rgb(86, 156, 214);&quot;&gt;void&lt;/span&gt;&lt;/div&gt;&lt;/div&gt;" style="text;strokeColor=none;fillColor=none;align=left;verticalAlign=top;spacingLeft=4;spacingRight=4;overflow=hidden;rotatable=0;points=[[0,0.5],[1,0.5]];portConstraint=eastwest;whiteSpace=wrap;html=1;" vertex="1" parent="H25HGTS_KYLRncIaYpZP-13">
          <mxGeometry y="248" width="330" height="102" as="geometry" />
        </mxCell>
        <mxCell id="H25HGTS_KYLRncIaYpZP-26" value="&lt;div style=&quot;color: #cccccc;background-color: #1f1f1f;font-family: Consolas, &#39;Courier New&#39;, monospace;font-weight: normal;font-size: 14px;line-height: 19px;white-space: pre;&quot;&gt;&lt;span style=&quot;color: #4ec9b0;&quot;&gt;               Note               &lt;/span&gt;&lt;/div&gt;" style="swimlane;fontStyle=1;align=center;verticalAlign=top;childLayout=stackLayout;horizontal=1;startSize=26;horizontalStack=0;resizeParent=1;resizeParentMax=0;resizeLast=0;collapsible=1;marginBottom=0;whiteSpace=wrap;html=1;" vertex="1" parent="H25HGTS_KYLRncIaYpZP-25">
          <mxGeometry x="800" y="640" width="270" height="150" as="geometry" />
        </mxCell>
        <mxCell id="H25HGTS_KYLRncIaYpZP-27" value="&lt;div style=&quot;color: rgb(204, 204, 204); background-color: rgb(31, 31, 31); font-family: Consolas, &amp;quot;Courier New&amp;quot;, monospace; font-size: 14px; line-height: 19px; white-space: pre;&quot;&gt;&lt;div&gt;&lt;span style=&quot;color: #569cd6;&quot;&gt;- int&lt;/span&gt; &lt;span style=&quot;color: #9cdcfe;&quot;&gt;speed&lt;/span&gt;;&lt;/div&gt;&lt;div&gt;&lt;span style=&quot;color: #569cd6;&quot;&gt;- string&lt;/span&gt; &lt;span style=&quot;color: #9cdcfe;&quot;&gt;color&lt;/span&gt;;                         &lt;/div&gt;&lt;/div&gt;" style="text;strokeColor=none;fillColor=none;align=left;verticalAlign=top;spacingLeft=4;spacingRight=4;overflow=hidden;rotatable=0;points=[[0,0.5],[1,0.5]];portConstraint=eastwest;whiteSpace=wrap;html=1;" vertex="1" parent="H25HGTS_KYLRncIaYpZP-26">
          <mxGeometry y="26" width="270" height="44" as="geometry" />
        </mxCell>
        <mxCell id="H25HGTS_KYLRncIaYpZP-28" value="" style="line;strokeWidth=1;fillColor=none;align=left;verticalAlign=middle;spacingTop=-1;spacingLeft=3;spacingRight=3;rotatable=0;labelPosition=right;points=[];portConstraint=eastwest;strokeColor=inherit;" vertex="1" parent="H25HGTS_KYLRncIaYpZP-26">
          <mxGeometry y="70" width="270" height="8" as="geometry" />
        </mxCell>
        <mxCell id="H25HGTS_KYLRncIaYpZP-29" value="&lt;div style=&quot;color: rgb(204, 204, 204); background-color: rgb(31, 31, 31); font-family: Consolas, &amp;quot;Courier New&amp;quot;, monospace; font-size: 14px; line-height: 19px; white-space: pre;&quot;&gt;&lt;div&gt;&lt;span style=&quot;color: rgb(86, 156, 214);&quot;&gt;+&lt;/span&gt; &lt;span style=&quot;color: rgb(220, 220, 170);&quot;&gt;Move&lt;/span&gt;(&lt;span style=&quot;color: rgb(86, 156, 214);&quot;&gt;int&lt;/span&gt;, &lt;span style=&quot;color: rgb(86, 156, 214);&quot;&gt;double&lt;/span&gt;): &lt;span style=&quot;color: rgb(86, 156, 214);&quot;&gt;void&lt;/span&gt;&lt;/div&gt;&lt;div&gt;&lt;span style=&quot;color: rgb(86, 156, 214);&quot;&gt;+&lt;/span&gt; &lt;span style=&quot;color: rgb(220, 220, 170);&quot;&gt;_Process&lt;/span&gt;(&lt;span style=&quot;color: rgb(86, 156, 214);&quot;&gt;double&lt;/span&gt;): &lt;span style=&quot;color: rgb(86, 156, 214);&quot;&gt;override&lt;/span&gt; &lt;span style=&quot;color: rgb(86, 156, 214);&quot;&gt;void&lt;/span&gt;&lt;br&gt;&lt;/div&gt;&lt;div&gt;&lt;span style=&quot;color: rgb(86, 156, 214);&quot;&gt;+&lt;/span&gt; &lt;span style=&quot;color: rgb(220, 220, 170);&quot;&gt;DestroyedNote&lt;/span&gt;(): &lt;span style=&quot;color: rgb(86, 156, 214);&quot;&gt;void             &lt;/span&gt;&lt;/div&gt;&lt;/div&gt;" style="text;strokeColor=none;fillColor=none;align=left;verticalAlign=top;spacingLeft=4;spacingRight=4;overflow=hidden;rotatable=0;points=[[0,0.5],[1,0.5]];portConstraint=eastwest;whiteSpace=wrap;html=1;" vertex="1" parent="H25HGTS_KYLRncIaYpZP-26">
          <mxGeometry y="78" width="270" height="72" as="geometry" />
        </mxCell>
        <mxCell id="H25HGTS_KYLRncIaYpZP-33" value="&lt;div style=&quot;color: #cccccc;background-color: #1f1f1f;font-family: Consolas, &#39;Courier New&#39;, monospace;font-weight: normal;font-size: 14px;line-height: 19px;white-space: pre;&quot;&gt;&lt;span style=&quot;color: #4ec9b0;&quot;&gt;            NoteGenerator            &lt;/span&gt;&lt;/div&gt;" style="swimlane;fontStyle=1;align=center;verticalAlign=top;childLayout=stackLayout;horizontal=1;startSize=26;horizontalStack=0;resizeParent=1;resizeParentMax=0;resizeLast=0;collapsible=1;marginBottom=0;whiteSpace=wrap;html=1;" vertex="1" parent="H25HGTS_KYLRncIaYpZP-25">
          <mxGeometry x="790" y="500" width="290" height="110" as="geometry" />
        </mxCell>
        <mxCell id="H25HGTS_KYLRncIaYpZP-34" value="&lt;div style=&quot;color: rgb(204, 204, 204); background-color: rgb(31, 31, 31); font-family: Consolas, &amp;quot;Courier New&amp;quot;, monospace; font-size: 14px; line-height: 19px; white-space: pre;&quot;&gt;&lt;div&gt;&lt;span style=&quot;color: rgb(86, 156, 214);&quot;&gt;-&lt;/span&gt; &lt;span style=&quot;color: rgb(78, 201, 176);&quot;&gt;Conductor&lt;/span&gt; &lt;span style=&quot;color: rgb(156, 220, 254);&quot;&gt;conductor&lt;/span&gt;;                &lt;/div&gt;&lt;/div&gt;" style="text;strokeColor=none;fillColor=none;align=left;verticalAlign=top;spacingLeft=4;spacingRight=4;overflow=hidden;rotatable=0;points=[[0,0.5],[1,0.5]];portConstraint=eastwest;whiteSpace=wrap;html=1;" vertex="1" parent="H25HGTS_KYLRncIaYpZP-33">
          <mxGeometry y="26" width="290" height="24" as="geometry" />
        </mxCell>
        <mxCell id="H25HGTS_KYLRncIaYpZP-35" value="" style="line;strokeWidth=1;fillColor=none;align=left;verticalAlign=middle;spacingTop=-1;spacingLeft=3;spacingRight=3;rotatable=0;labelPosition=right;points=[];portConstraint=eastwest;strokeColor=inherit;" vertex="1" parent="H25HGTS_KYLRncIaYpZP-33">
          <mxGeometry y="50" width="290" height="8" as="geometry" />
        </mxCell>
        <mxCell id="H25HGTS_KYLRncIaYpZP-36" value="&lt;div style=&quot;color: rgb(204, 204, 204); font-family: Consolas, &amp;quot;Courier New&amp;quot;, monospace; font-size: 14px; white-space: pre;&quot;&gt;&lt;div style=&quot;background-color: rgb(31, 31, 31); line-height: 19px;&quot;&gt;&lt;div&gt;&lt;span style=&quot;color: #569cd6;&quot;&gt;+&lt;/span&gt; &lt;span style=&quot;color: #dcdcaa;&quot;&gt;_Ready&lt;/span&gt;(): &lt;span style=&quot;color: rgb(86, 156, 214);&quot;&gt;override&lt;/span&gt; &lt;span style=&quot;color: rgb(86, 156, 214);&quot;&gt;void&lt;/span&gt;&lt;br&gt;&lt;/div&gt;&lt;div&gt;&lt;span style=&quot;color: #569cd6;&quot;&gt;+&lt;/span&gt; &lt;span style=&quot;color: #dcdcaa;&quot;&gt;SpawnNote&lt;/span&gt;(&lt;span style=&quot;color: #569cd6;&quot;&gt;int&lt;/span&gt; &lt;span style=&quot;color: #9cdcfe;&quot;&gt;position&lt;/span&gt;): &lt;span style=&quot;color: rgb(86, 156, 214);&quot;&gt;void      &lt;/span&gt;&lt;/div&gt;&lt;/div&gt;&lt;/div&gt;" style="text;strokeColor=none;fillColor=none;align=left;verticalAlign=top;spacingLeft=4;spacingRight=4;overflow=hidden;rotatable=0;points=[[0,0.5],[1,0.5]];portConstraint=eastwest;whiteSpace=wrap;html=1;" vertex="1" parent="H25HGTS_KYLRncIaYpZP-33">
          <mxGeometry y="58" width="290" height="52" as="geometry" />
        </mxCell>
        <mxCell id="H25HGTS_KYLRncIaYpZP-37" style="edgeStyle=orthogonalEdgeStyle;rounded=0;orthogonalLoop=1;jettySize=auto;html=1;endArrow=diamondThin;endFill=1;strokeWidth=2;" edge="1" parent="H25HGTS_KYLRncIaYpZP-25" source="H25HGTS_KYLRncIaYpZP-9" target="H25HGTS_KYLRncIaYpZP-6">
          <mxGeometry relative="1" as="geometry">
            <Array as="points">
              <mxPoint x="460" y="405" />
              <mxPoint x="460" y="260" />
            </Array>
          </mxGeometry>
        </mxCell>
        <mxCell id="H25HGTS_KYLRncIaYpZP-38" style="edgeStyle=orthogonalEdgeStyle;rounded=0;orthogonalLoop=1;jettySize=auto;html=1;endArrow=diamondThin;endFill=1;strokeWidth=2;" edge="1" parent="H25HGTS_KYLRncIaYpZP-25" target="H25HGTS_KYLRncIaYpZP-6">
          <mxGeometry relative="1" as="geometry">
            <mxPoint x="470" y="180" as="sourcePoint" />
            <Array as="points">
              <mxPoint x="460" y="180" />
              <mxPoint x="460" y="180" />
            </Array>
          </mxGeometry>
        </mxCell>
        <mxCell id="H25HGTS_KYLRncIaYpZP-39" style="edgeStyle=orthogonalEdgeStyle;rounded=0;orthogonalLoop=1;jettySize=auto;html=1;strokeWidth=2;" edge="1" parent="H25HGTS_KYLRncIaYpZP-25" source="H25HGTS_KYLRncIaYpZP-17">
          <mxGeometry relative="1" as="geometry">
            <mxPoint x="60" y="320" as="targetPoint" />
            <Array as="points">
              <mxPoint x="10" y="694" />
              <mxPoint x="10" y="320" />
            </Array>
          </mxGeometry>
        </mxCell>
      </root>
    </mxGraphModel>
  </diagram>
</mxfile>
